# xmcd
# 
# Track frame offsets:
#     150
#     17236
#     35842
#     49616
#     77892
#     90026
#     110126
#     127897
#     142617
#     161926
#     181229
#     209675
#     232488
#     248447
#     267693
#     293047
# 
# Disc length: 4356
# 
# Revision: 2
# Processed by: cddbd v1.5.2PL0 Copyright (c) Steve Scherf et al.
# Submitted via: fre:ac v1.0.31
# 
DISCID=e5110210
DTITLE=Axel Zwingenberger - Kansas City Boogie Jam
DYEAR=2000
DGENRE=Boogie Woogie
TTITLE0=Boogie Out In The Field
TTITLE1=Just Before The Break Of Day
TTITLE2=Cincinnati Baby
TTITLE3=Goin' Down To The River
TTITLE4=PC Bounce
TTITLE5=Slow Storm
TTITLE6=High Price Blues
TTITLE7=Mr. Freddie Blues
TTITLE8=Baby, Rub My Achin' Head
TTITLE9=When I'm With My Baby
TTITLE10=Little Girl's Boogie
TTITLE11=So Tired, So Lonely Too
TTITLE12=I Love My Baby
TTITLE13=Indian Summer Boogie
TTITLE14=Kansas City Boogie Jam
TTITLE15=Doo Wah Doo
EXTD=Serie: Axel Zwingenberger and the friends of Boogie Woogie - Vol. 10 YEAR: 2000
EXTT0=Serie: Axel Zwingenberger and the friends of Boogie Woogie - Vol. 10
EXTT1=Serie: Axel Zwingenberger and the friends of Boogie Woogie - Vol. 10
EXTT2=Serie: Axel Zwingenberger and the friends of Boogie Woogie - Vol. 10
EXTT3=Serie: Axel Zwingenberger and the friends of Boogie Woogie - Vol. 10
EXTT4=Serie: Axel Zwingenberger and the friends of Boogie Woogie - Vol. 10
EXTT5=Serie: Axel Zwingenberger and the friends of Boogie Woogie - Vol. 10
EXTT6=Serie: Axel Zwingenberger and the friends of Boogie Woogie - Vol. 10
EXTT7=Serie: Axel Zwingenberger and the friends of Boogie Woogie - Vol. 10
EXTT8=Serie: Axel Zwingenberger and the friends of Boogie Woogie - Vol. 10
EXTT9=Serie: Axel Zwingenberger and the friends of Boogie Woogie - Vol. 10
EXTT10=Serie: Axel Zwingenberger and the friends of Boogie Woogie - Vol. 10
EXTT11=Serie: Axel Zwingenberger and the friends of Boogie Woogie - Vol. 10
EXTT12=Serie: Axel Zwingenberger and the friends of Boogie Woogie - Vol. 10
EXTT13=Serie: Axel Zwingenberger and the friends of Boogie Woogie - Vol. 10
EXTT14=Serie: Axel Zwingenberger and the friends of Boogie Woogie - Vol. 10
EXTT15=Serie: Axel Zwingenberger and the friends of Boogie Woogie - Vol. 10
PLAYORDER=
